<svg width="74" height="62" viewBox="0 0 74 62" fill="none" xmlns="http://www.w3.org/2000/svg">
<path d="M64.6042 37.0355C64.6042 32.8931 62.9582 28.9207 60.0291 25.9916C57.1914 23.1539 53.3747 21.5205 49.3728 21.4213L48.9851 21.4164H16.7938C16.3483 21.4164 16.1252 21.955 16.4402 22.2699L19.9763 25.806C21.7337 27.5634 21.7337 30.4129 19.9763 32.1703C18.219 33.9271 15.3703 33.9272 13.613 32.1703L1.54175 20.098C0.697867 19.2541 0.223389 18.1098 0.223389 16.9164C0.223416 15.723 0.697859 14.5786 1.54175 13.7347L13.613 1.66346L13.781 1.5033C15.5475 -0.0924625 18.274 -0.0388423 19.9763 1.66346C21.6787 3.36581 21.7322 6.09228 20.1365 7.85877L19.9763 8.02674L16.4402 11.5628C16.1252 11.8778 16.3483 12.4164 16.7938 12.4164H48.9851L49.5964 12.4242C55.9043 12.5807 61.9206 15.1546 66.3933 19.6273C71.0103 24.2443 73.6042 30.5062 73.6042 37.0355C73.6042 43.5649 71.0103 49.8268 66.3933 54.4437C61.9206 58.9164 55.9042 61.4904 49.5964 61.6469L48.9851 61.6547H20.8181C18.3331 61.6544 16.3182 59.6397 16.3181 57.1547C16.3181 54.6695 18.333 52.6549 20.8181 52.6547H48.9851L49.3728 52.6498C53.3747 52.5505 57.1914 50.9171 60.0291 48.0795C62.9582 45.1504 64.6042 41.1779 64.6042 37.0355Z" fill="white"/>
</svg>
