<svg width="89" height="90" viewBox="0 0 89 90" fill="none" xmlns="http://www.w3.org/2000/svg">
<path d="M44.5 0C69.0773 0 89 20.1465 89 45C89 69.8535 69.0773 90 44.5 90C19.9227 90 0 69.8535 0 45C0 20.1465 19.9227 0 44.5 0ZM44.5 9C35.0583 9 26.0033 12.7928 19.327 19.5442C12.6507 26.2955 8.9 35.4522 8.9 45C8.9 54.5478 12.6507 63.7045 19.327 70.4558C26.0033 77.2072 35.0583 81 44.5 81C53.9417 81 62.9967 77.2072 69.673 70.4558C76.3493 63.7045 80.1 54.5478 80.1 45C80.1 35.4522 76.3493 26.2955 69.673 19.5442C62.9967 12.7928 53.9417 9 44.5 9ZM44.5 18C45.59 18.0001 46.6419 18.4048 47.4565 19.1372C48.271 19.8696 48.7913 20.8789 48.9188 21.9735L48.95 22.5V42.3151C48.95 42.8417 49.1577 43.347 49.5279 43.7214L60.9961 55.3185C61.7942 56.1283 62.2576 57.215 62.2921 58.3577C62.3266 59.5005 61.9297 60.6137 61.1819 61.4713C60.4342 62.3288 59.3917 62.8664 58.2662 62.9748C57.1407 63.0832 56.0166 62.7544 55.1221 62.055L54.7038 61.6815L41.3538 48.1815C40.6622 47.4815 40.218 46.5705 40.09 45.5895L40.05 22.5C40.05 21.3065 40.5188 20.1619 41.3534 19.318C42.1879 18.4741 43.3198 18 44.5 18Z" fill="white"/>
</svg>
