<svg width="90" height="90" viewBox="0 0 90 90" fill="none" xmlns="http://www.w3.org/2000/svg">
<path d="M44.6117 89.6117C38.5147 89.6117 32.7524 88.4399 27.3246 86.0963C21.8969 83.7527 17.1577 80.5555 13.1069 76.5048C9.05617 72.454 5.859 67.7148 3.5154 62.287C1.1718 56.8593 0 51.0969 0 45C0 38.8287 1.1718 33.0485 3.5154 27.6595C5.859 22.2704 9.05617 17.549 13.1069 13.4952C17.1577 9.44153 21.8969 6.24436 27.3246 3.90374C32.7524 1.56311 38.5147 0.39131 44.6117 0.388336C50.783 0.388336 56.5646 1.56014 61.9567 3.90374C67.3488 6.24734 72.0687 9.44451 76.1164 13.4952C80.1642 17.546 83.3614 22.2674 85.7079 27.6595C88.0545 33.0515 89.2263 38.8317 89.2233 45C89.2233 51.0969 88.0515 56.8593 85.7079 62.287C83.3643 67.7148 80.1672 72.4555 76.1164 76.5092C72.0657 80.563 67.3443 83.7601 61.9522 86.1007C56.5602 88.4414 50.78 89.6117 44.6117 89.6117ZM43.8142 79.3344C44.2003 79.8963 45.0231 79.8963 45.4091 79.3344C47.0086 77.0059 48.4158 74.595 49.6305 72.1016C51.0432 69.2019 52.1957 66.1162 53.0879 62.8447H36.1355C37.0277 66.1162 38.1802 69.2019 39.5929 72.1016C40.8076 74.595 42.2147 77.0059 43.8142 79.3344ZM31.8284 78.2773C32.253 78.431 32.6328 77.9779 32.4247 77.5772C31.3288 75.4659 30.3544 73.2868 29.5017 71.0398C28.4994 68.3988 27.6622 65.6671 26.9901 62.8447H14.6976C14.3123 62.8447 14.0727 63.2617 14.2735 63.5907C16.3522 66.9966 18.9002 69.9823 21.9177 72.5477C24.8433 75.035 28.1468 76.9448 31.8284 78.2773ZM56.8011 77.5759C56.5925 77.9767 56.9722 78.4305 57.3971 78.2768C61.0806 76.9444 64.3849 75.0347 67.3101 72.5477C70.3276 69.9822 72.8745 66.9965 74.9506 63.5904C75.1511 63.2615 74.9115 62.8447 74.5263 62.8447H62.2333C61.5641 65.6701 60.7284 68.4033 59.7261 71.0443C58.8737 73.2904 57.8987 75.4676 56.8011 77.5759ZM9.85691 53.1604C9.95887 53.6089 10.3608 53.9224 10.8207 53.9224H25.2056C24.9825 52.4353 24.816 50.9676 24.7059 49.5192C24.5959 48.0708 24.5394 46.5644 24.5364 45C24.5334 43.4356 24.59 41.9307 24.7059 40.4853C24.8219 39.0399 24.9885 37.5707 25.2056 36.0777L10.8184 36.0777C10.3595 36.0777 9.95821 36.3897 9.85559 36.837C9.57374 38.0654 9.35634 39.2815 9.20339 40.4853C9.01899 41.9367 8.92531 43.4416 8.92233 45C8.91936 46.5584 9.01305 48.0648 9.20339 49.5192C9.36104 50.7237 9.57888 51.9375 9.85691 53.1604ZM34.1279 53.9224H55.0954C55.3185 52.4353 55.4865 50.9676 55.5995 49.5192C55.7125 48.0708 55.7676 46.5644 55.7646 45C55.7616 43.4356 55.7051 41.9307 55.5951 40.4853C55.485 39.0399 55.3185 37.5707 55.0954 36.0777H34.1279C33.9049 37.5647 33.7383 39.0339 33.6283 40.4853C33.5182 41.9367 33.4617 43.4416 33.4588 45C33.4558 46.5584 33.5123 48.0648 33.6283 49.5192C33.7443 50.9735 33.9108 52.4412 34.1279 53.9224ZM64.0178 53.9224H78.4049C78.8638 53.9224 79.2651 53.6103 79.3679 53.1631C79.6502 51.9352 79.869 50.7205 80.0244 49.5192C80.2118 48.0708 80.304 46.5644 80.301 45C80.298 43.4356 80.2058 41.9307 80.0244 40.4853C79.8737 39.2847 79.6553 38.0677 79.3692 36.8343C79.2658 36.3883 78.865 36.0777 78.4072 36.0777H64.0178C64.2408 37.5647 64.4088 39.0339 64.5219 40.4853C64.6349 41.9367 64.6899 43.4416 64.6869 45C64.684 46.5584 64.6274 48.0648 64.5174 49.5192C64.4074 50.9735 64.2408 52.4412 64.0178 53.9224ZM62.2333 27.1553H74.5257C74.9111 27.1553 75.1506 26.7383 74.9499 26.4094C72.8714 23.0034 70.3248 20.0177 67.3101 17.4523C64.8754 15.3805 59.8128 12.9502 57.4612 11.8765C57.0369 11.6827 56.6129 12.1278 56.8178 12.5469C57.6259 14.1993 59.0333 17.1401 59.7261 18.9602C60.7314 21.6012 61.5671 24.3329 62.2333 27.1553ZM36.1355 27.1553H53.0879C52.1957 23.8838 51.0432 20.7982 49.6305 17.8984C48.6435 15.8725 46.5859 12.5946 45.4354 10.8029C45.0477 10.199 44.1757 10.199 43.7879 10.8029C42.6374 12.5946 40.5798 15.8725 39.5929 17.8984C38.1802 20.7982 37.0277 23.8838 36.1355 27.1553ZM14.2728 26.4096C14.0723 26.7385 14.3118 27.1553 14.697 27.1553H26.9901C27.6592 24.3299 28.4964 21.5967 29.5017 18.9557C30.1943 17.136 31.5993 14.198 32.4062 12.5467C32.6109 12.1276 32.1869 11.6826 31.7626 11.8764C29.4118 12.9502 24.3502 15.3805 21.9133 17.4523C18.8957 20.0178 16.3489 23.0036 14.2728 26.4096Z" fill="white"/>
</svg>
