<svg width="90" height="90" viewBox="0 0 90 90" fill="none" xmlns="http://www.w3.org/2000/svg">
<path d="M68.1152 42.1715C69.6774 43.7336 69.6773 46.2663 68.1151 47.8284L47.0509 68.8912C45.3498 70.5922 42.592 70.5923 40.8908 68.8916V68.8916C39.1891 67.1904 39.1889 64.4318 40.8903 62.7304L53.3849 50.2358C53.6998 49.9208 53.4768 49.3823 53.0313 49.3823H24.6645C22.2442 49.3823 20.2822 47.4203 20.2822 45V45C20.2822 42.5797 22.2442 40.6177 24.6645 40.6177H53.0313C53.4768 40.6177 53.6998 40.0792 53.3849 39.7642L40.8902 27.2696C39.1888 25.5681 39.1888 22.8095 40.8902 21.108V21.108C42.5917 19.4066 45.3503 19.4066 47.0518 21.108L68.1152 42.1715Z" fill="white"/>
<path fill-rule="evenodd" clip-rule="evenodd" d="M45.8729 0.514644C69.9445 1.12302 89.2234 20.7799 89.2234 45L89.2087 46.1496C88.61 69.839 69.5624 88.8866 45.8729 89.4854L44.7234 89.5C20.5033 89.5 0.846377 70.2211 0.238002 46.1496L0.223358 45C0.223359 20.3955 20.1189 0.499999 44.7234 0.5L45.8729 0.514644ZM44.7234 9.26454C25.2565 9.26454 9.48703 24.7291 8.99888 44.0756L8.9879 45C8.98804 64.7758 24.9475 80.7355 44.7234 80.7355C64.19 80.7353 79.9595 65.2707 80.4478 45.9244L80.4588 45C80.4588 25.5333 64.9942 9.76381 45.6478 9.27552L44.7234 9.26454Z" fill="white"/>
</svg>
