<svg width="1207" height="44" viewBox="0 0 1207 44" fill="none" xmlns="http://www.w3.org/2000/svg">
<path d="M1185.03 0.420898C1196.81 0.438046 1206.35 10.0032 1206.33 21.7852C1206.32 33.5671 1196.75 43.1037 1184.97 43.0869C1174.56 43.0719 1165.9 35.5971 1164.04 25.7246L830.995 25.2451C828.786 25.2419 826.998 23.4484 827.001 21.2393C827.004 19.0303 828.797 17.2422 831.006 17.2451L1164.05 17.7246C1165.94 7.85738 1174.62 0.405916 1185.03 0.420898ZM22.001 0.166992C32.4157 0.166992 41.0856 7.63006 42.958 17.5H400.001L400.207 17.5049C402.32 17.6121 404.001 19.36 404.001 21.5C404.001 23.64 402.32 25.3879 400.207 25.4951L400.001 25.5H42.958C41.0856 35.3699 32.4157 42.833 22.001 42.833C10.2189 42.833 0.667969 33.2821 0.667969 21.5C0.667969 9.71793 10.2189 0.166992 22.001 0.166992ZM799 17.5C801.209 17.5 803 19.2909 803 21.5C803 23.7091 801.209 25.5 799 25.5H432C429.791 25.5 428 23.7091 428 21.5C428 19.2909 429.791 17.5 432 17.5H799Z" fill="white"/>
</svg>
