<svg width="60" height="60" viewBox="0 0 60 60" fill="none" xmlns="http://www.w3.org/2000/svg">
<path d="M51.1718 1.97282C53.0364 0.288195 55.9148 0.344991 57.7119 2.14176C59.5089 3.93878 59.5655 6.81718 57.8808 8.6818L57.7119 8.85856L37.2774 29.2921C36.8868 29.6826 36.8868 30.3158 37.2774 30.7063L57.7128 51.1418C59.5678 52.9968 59.5678 56.0036 57.7128 57.8586C55.8578 59.7136 52.851 59.7136 50.996 57.8586L30.5606 37.4231C30.17 37.0326 29.5369 37.0326 29.1463 37.4231L8.71185 57.8586C6.85685 59.7134 3.85 59.7135 1.99506 57.8586C0.140361 56.0036 0.140279 52.9967 1.99506 51.1418L22.4296 30.7063C22.8201 30.3158 22.8201 29.6826 22.4296 29.2921L1.99603 8.85856L1.82709 8.6818C0.142501 6.81718 0.199053 3.93874 1.99603 2.14176C3.79301 0.344785 6.67144 0.288234 8.53607 1.97282L8.71283 2.14176L29.1464 22.5753C29.5369 22.9658 30.17 22.9658 30.5606 22.5753L50.9951 2.14176L51.1718 1.97282Z" fill="#9A0003"/>
</svg>
